<?xml version="1.0" encoding="UTF-8"?>
<svg id="Layer_1" xmlns="http://www.w3.org/2000/svg" version="1.1" viewBox="0 0 907 267">
  <!-- Generator: Adobe Illustrator 29.8.2, SVG Export Plug-In . SVG Version: 2.1.1 Build 3)  -->
  <defs>
    <style>
      .st0 {
        fill: #fff;
      }
    </style>
  </defs>
  <path class="st0" d="M102.6,219.6c0,22-17.8,39.8-39.8,39.8s-39.8-17.8-39.8-39.8,0-1.4.1-2.1c0-.2-.1-.3-.1-.5v-34.4c0-1.5,1.2-2.7,2.7-2.7h37.1c22,0,39.8,17.8,39.8,39.8h0ZM114.8,6.2h-.3c-2.3-.2-4.6-.3-6.9-.3s-4.6.1-6.9.3H26.8c-2.1,0-3.8,1.7-3.8,3.8v80.5c0,46.7,37.9,84.6,84.6,84.6s84.6-37.9,84.6-84.6S158.1,9.9,114.8,6.3h0Z"/>
  <path class="st0" d="M709.4,182.7c-8.2,0-15.6-2.2-22-7.3-6.5-5.1-10.2-11.9-11.8-19.9-1.6-7.7-1.2-15.3,1.5-22.6,4.4-11.7,12.8-18.7,25.1-21,7-1.3,14-.9,20.7,1.8,8.4,3.3,14.4,9.1,17.9,17.3,4.1,9.8,4.4,19.9.8,29.8-4.2,11.6-12.6,18.6-24.7,21-2.4.5-4.9.6-7.4.9h-.1ZM691.4,147.1c-.1,0,.7,6.3,1.7,9.1,2.4,6.4,7.1,10.4,14.1,11,7.4.7,13.3-2,17-8.6,2.7-4.8,3.2-10,2.6-15.4-1-7.8-6-15.7-15.3-16.6-4.8-.5-9.4.3-13.2,3.5-5.2,4.4-7,10.4-7,16.9h0ZM600.1,83.3h37.6c7.8,0,15.3,1.1,22.4,4.7,11.9,6.2,18.2,19.4,15.3,32.4-2.8,12.2-10.7,19.6-22.3,23.4-4.4,1.5-8.9,1.9-13.6,1.9h-20.6v35.7h-18.9v-98.2h.1ZM619,130.1h21.6c5,0,9.3-2,12.8-5.7,4.3-4.5,4.6-12.5,1.5-17.1-3.1-4.7-7.6-6.8-13-7.2-5-.3-10.1-.1-15.2-.1h-7.8v30h.1ZM890.9,181.5h-17.7v-9.8c-1.1,1.3-1.8,2.2-2.6,3-8.7,8.8-21.9,10.5-32.5,4.1-8.7-5.3-13.5-13.3-15.5-23-1.5-7.3-1.3-14.6,1.1-21.8,3.9-11.6,11.2-20,23.8-22.3,10-1.8,18.4,1.5,24.9,9.3.1.2.3.3.7.8v-38.8h17.9v98.4h0ZM839.6,146.1c0,4.3.8,7.5,2.4,10.6,5.3,9.8,17.1,12.2,24.9,4.9,8.1-7.5,8.3-21.1.5-28.9-5.8-5.7-14-6.4-20.4-1.5-5.1,3.9-7.3,9.4-7.5,14.9h.1ZM430.6,179c0-11.9,0-23.9.2-35.8,0-4.9,2.1-9.1,6-12.2,5.8-4.7,15.6-4,20.2,1.5,2.2,2.6,2.7,5.8,2.7,9.1v39.7h17.8c0-.5.1-.9,0-1.3,0-14,0-28.1-.2-42.1,0-6.1-1.4-12-5-17.2-7.3-10.6-23.8-12.4-34.1-5.7-3.1,2-5.7,4.4-7.8,7.5v-40h-17.7v99h17.8v-2.5h.1ZM552.9,160.6c-4.5,11.5-12.3,18.9-24.4,21.2-7.3,1.4-14.6,1.1-21.6-1.3-10.5-3.6-17.5-10.7-20.8-21.3-2.8-8.9-2.7-17.8.6-26.5,3.6-9.6,10.3-16.2,20.2-19.4,9.3-3,18.5-2.9,27.5.9,9.6,4.1,15.6,11.4,18,21.5,1.4,5.7,1.5,11.5.6,15.6h-51.1c.3,3.4,1.5,6.2,3.4,8.8,5.6,7.8,18.7,9.4,25.9,3.1,1.6-1.4,2.7-3.3,4-4.9.4-.4,1.1-1,1.5-.9,5.3,1,10.7,2.2,16.3,3.4v-.2ZM535.2,139c-.6-5.7-3.9-10.3-8.8-12.2-3.7-1.4-7.6-1.3-11.5-.6-6.2,1.2-11.4,6.6-12.3,12.8h32.6,0ZM750.4,181.4h17.9v-38.6c.1-7.8,6.8-16.3,17.6-14.7,5.8.9,9.6,4,10.8,9.3.3,1.5.5,3,.5,4.5v37.7c0,12.5,0,1.2,0,1.8h17.8c0-.3.1-.4.1-.6,0-14.8,0-29.6-.2-44.3,0-5.2-1.4-10.2-4.3-14.6-5-7.8-12.4-10.7-21.3-10.6-7.6,0-14,2.9-18.9,8.7-.7.8-1.3,1.6-2.2,2.8v-10.4h-17.8v69h0ZM328.8,82.7v16.7h28.5v82h18.9v-82h28.4v-16.7h-75.8Z"/>
</svg>